<?xml version="1.0" encoding="iso-8859-1"?>
<!-- Generator: Adobe Illustrator 16.0.0, SVG Export Plug-In . SVG Version: 6.00 Build 0)  -->
<!DOCTYPE svg PUBLIC "-//W3C//DTD SVG 1.1//EN" "http://www.w3.org/Graphics/SVG/1.1/DTD/svg11.dtd">
<svg version="1.1" id="Capa_1" xmlns="http://www.w3.org/2000/svg" xmlns:xlink="http://www.w3.org/1999/xlink" x="0px" y="0px" fill="#1d809f"
	 width="586.753px" height="586.752px" viewBox="0 0 586.753 586.752" style="enable-background:new 0 0 586.753 586.752;"
	 xml:space="preserve">
<g>
	<g>
		<path d="M527.9,385.922c21.924-17.361,39.722-40.547,52.897-68.92c8.395-18.078,7.037-38.849-3.63-55.564
			c-5.108-8.005-12.175-14.718-20.434-19.416c-8.741-4.972-18.653-7.6-28.664-7.6c-8.178,0-16.163,1.702-23.735,5.059
			c-1.452,0.644-2.749,1.035-3.87,1.17c-0.816-0.415-2.61-1.472-5.632-3.961c-4.585-3.777-9.898-9.102-15.524-14.739
			c-11.491-11.513-24.516-24.562-41.537-35.455c-10.123-6.477-20.717-11.507-31.489-14.949c-12.415-3.967-25.487-5.979-38.852-5.979
			c-20.978,0-40.615,4.545-58.37,13.511c-5.471,2.762-10.707,5.916-15.691,9.445c-4.983-3.529-10.22-6.683-15.688-9.444
			c-17.754-8.965-37.392-13.512-58.366-13.512c-13.364,0-26.434,2.011-38.848,5.978c-10.771,3.442-21.365,8.471-31.487,14.947
			c-17.02,10.89-30.044,23.938-41.536,35.451c-5.628,5.639-10.945,10.965-15.532,14.743c-3.025,2.492-4.82,3.548-5.636,3.963
			c-1.119-0.134-2.414-0.524-3.863-1.167c-7.568-3.354-15.551-5.055-23.726-5.056c-10.01,0-19.923,2.625-28.665,7.596
			c-8.262,4.697-15.329,11.411-20.438,19.418c-10.668,16.716-12.024,37.489-3.628,55.568c13.176,28.367,30.972,51.555,52.896,68.912
			c14.002,11.088,29.647,19.697,46.501,25.59c18.358,6.418,38.343,9.672,59.399,9.672c31.723,0,63.039-7.932,93.077-23.578
			c13.789-7.182,25.724-15.199,35.542-22.74c9.819,7.541,21.756,15.559,35.544,22.74c30.039,15.646,61.354,23.578,93.078,23.578
			c21.058,0.002,41.044-3.252,59.403-9.672C498.251,405.62,513.897,397.01,527.9,385.922z M303.861,327.639
			c-2.949-2.777-6.72-4.164-10.491-4.164c-3.771,0-7.542,1.389-10.492,4.164c-18.756,17.654-61.442,50.707-118.127,50.707
			c-68.506,0-102.996-42.896-119.941-79.382c-4.983-10.73,3.422-21.697,13.874-21.696c2.074,0,4.229,0.432,6.374,1.383
			c6.678,2.959,14.089,4.892,22.058,4.892c43.587,0,64.104-75.134,132.199-75.134c31.628,0,51.606,14.764,62.734,27.004
			c3.037,3.34,7.178,5.01,11.32,5.01s8.284-1.67,11.321-5.011c11.127-12.24,31.106-27.004,62.741-27.004
			c68.104,0,88.612,75.134,132.193,75.134c7.973,0,15.39-1.936,22.071-4.898c2.146-0.952,4.3-1.383,6.375-1.383
			c10.448,0,18.854,10.967,13.872,21.695c-16.944,36.488-51.436,79.391-119.95,79.387
			C365.308,378.346,322.619,345.292,303.861,327.639z"/>
		<path d="M422.014,421.684h-0.02c-31.807,0-63.2-7.952-93.31-23.635c-12.151-6.329-24.03-13.916-35.312-22.554
			c-11.284,8.64-23.163,16.227-35.312,22.554c-30.107,15.683-61.5,23.635-93.308,23.635c-21.113,0-41.154-3.264-59.564-9.7
			c-16.908-5.911-32.602-14.548-46.646-25.67c-21.983-17.404-39.828-40.65-53.039-69.093c-8.469-18.235-7.101-39.188,3.66-56.048
			c5.153-8.075,12.28-14.847,20.613-19.583c8.815-5.012,18.812-7.662,28.909-7.662c8.248,0,16.298,1.716,23.931,5.099
			c1.333,0.591,2.533,0.963,3.569,1.107c0.844-0.445,2.576-1.5,5.409-3.833c4.57-3.764,9.877-9.082,15.496-14.71
			c11.512-11.533,24.556-24.6,41.62-35.519c10.159-6.5,20.792-11.547,31.604-15.002c12.463-3.983,25.584-6.002,39-6.002
			c21.053,0,40.766,4.564,58.591,13.565c5.356,2.705,10.557,5.826,15.463,9.278c4.908-3.455,10.11-6.576,15.466-9.279
			c17.825-9,37.539-13.564,58.596-13.564c13.416,0,26.538,2.02,39.004,6.002c10.81,3.454,21.443,8.501,31.606,15.003
			c17.067,10.922,30.112,23.992,41.621,35.523c5.619,5.63,10.924,10.945,15.489,14.706c2.829,2.331,4.561,3.386,5.404,3.831
			c1.037-0.145,2.239-0.518,3.577-1.111c7.636-3.385,15.69-5.102,23.938-5.102c10.098,0,20.095,2.651,28.911,7.666
			c8.331,4.739,15.457,11.51,20.608,19.582c10.759,16.86,12.128,37.811,3.661,56.044c-13.206,28.439-31.052,51.688-53.04,69.101
			c-14.046,11.122-29.74,19.759-46.648,25.67C463.156,418.42,443.121,421.684,422.014,421.684z M293.372,374.235l0.305,0.234
			c11.326,8.698,23.261,16.334,35.471,22.693c29.964,15.607,61.202,23.521,92.847,23.521h0.02c20.994,0,40.919-3.245,59.219-9.644
			c16.803-5.875,32.399-14.458,46.357-25.51c21.865-17.315,39.614-40.442,52.755-68.739c8.321-17.921,6.977-38.514-3.599-55.084
			c-5.063-7.935-12.069-14.592-20.259-19.25c-8.666-4.929-18.492-7.535-28.417-7.535c-8.107,0-16.024,1.688-23.533,5.016
			c-1.493,0.662-2.843,1.069-4.013,1.209l-0.15,0.018l-0.136-0.069c-0.822-0.418-2.659-1.496-5.724-4.021
			c-4.603-3.792-9.923-9.124-15.557-14.768c-11.477-11.498-24.48-24.527-41.456-35.39c-10.09-6.455-20.645-11.466-31.372-14.894
			c-12.366-3.951-25.387-5.955-38.699-5.955c-20.898,0-40.461,4.528-58.145,13.457c-5.417,2.735-10.675,5.899-15.628,9.407
			l-0.289,0.205l-0.289-0.205c-4.95-3.506-10.207-6.67-15.625-9.406c-17.685-8.93-37.246-13.458-58.14-13.458
			c-13.312,0-26.331,2.003-38.695,5.955c-10.73,3.428-21.284,8.438-31.37,14.892c-16.972,10.859-29.976,23.886-41.448,35.379
			c-5.639,5.65-10.963,10.984-15.571,14.779c-3.067,2.527-4.905,3.605-5.727,4.023l-0.135,0.069l-0.151-0.018
			c-1.169-0.14-2.517-0.546-4.006-1.206c-7.504-3.326-15.419-5.012-23.523-5.013c-9.927,0-19.753,2.604-28.417,7.531
			c-8.191,4.657-15.199,11.314-20.264,19.252c-10.576,16.571-11.92,37.165-3.596,55.088c13.144,28.3,30.893,51.424,52.752,68.731
			c13.957,11.052,29.553,19.635,46.355,25.51c18.304,6.398,38.233,9.644,59.234,9.644c31.645,0,62.882-7.914,92.846-23.521
			c12.207-6.357,24.14-13.993,35.469-22.693L293.372,374.235z M164.751,378.846c-68.924,0-103.514-43.325-120.395-79.671
			c-2.309-4.972-1.974-10.422,0.919-14.955c2.933-4.597,8.071-7.452,13.407-7.452c2.23,0,4.443,0.479,6.578,1.426
			c7.261,3.218,14.615,4.849,21.855,4.849c19.166,0,33.591-14.453,50.295-31.187c20.562-20.599,43.867-43.947,81.903-43.947
			c31.742,0,51.837,14.774,63.104,27.168c2.8,3.08,6.791,4.847,10.95,4.847c4.159,0,8.151-1.767,10.951-4.847
			c11.267-12.394,31.361-27.168,63.111-27.168c38.044,0,61.349,23.35,81.91,43.951c16.699,16.732,31.122,31.183,50.283,31.183
			c7.245,0,14.603-1.633,21.868-4.855c2.134-0.946,4.348-1.426,6.578-1.426c5.336,0,10.473,2.856,13.406,7.453
			c2.893,4.533,3.228,9.982,0.919,14.953c-16.879,36.348-51.468,79.676-120.394,79.676c-56.084,0.002-98.306-31.853-118.483-50.841
			c-2.758-2.598-6.362-4.028-10.148-4.028c-3.784,0-7.389,1.431-10.149,4.028C263.047,346.992,220.831,378.846,164.751,378.846z
			 M58.682,277.769c-4.999,0-9.813,2.679-12.564,6.99c-2.705,4.239-3.017,9.339-0.854,13.995
			c16.758,36.082,51.092,79.093,119.488,79.093c55.735,0,97.719-31.685,117.785-50.571c2.947-2.772,6.794-4.3,10.834-4.3
			c4.042,0,7.89,1.527,10.834,4.3c20.069,18.887,62.06,50.571,117.788,50.569c68.408,0,102.74-43.014,119.497-79.098
			c2.161-4.654,1.85-9.754-0.855-13.994c-2.752-4.312-7.566-6.991-12.563-6.991c-2.09,0-4.167,0.451-6.172,1.34
			c-7.396,3.279-14.89,4.941-22.274,4.941c-19.576,0-34.836-15.29-50.991-31.477c-20.424-20.463-43.572-43.657-81.202-43.657
			c-31.384,0-51.24,14.596-62.371,26.841c-2.989,3.288-7.251,5.174-11.691,5.174c-4.44,0-8.701-1.886-11.69-5.174
			c-11.132-12.245-30.988-26.841-62.364-26.841c-37.622,0-60.771,23.192-81.195,43.653c-16.16,16.189-31.423,31.48-51.003,31.48
			c-7.381,0-14.87-1.66-22.26-4.935c-2.006-0.889-4.083-1.34-6.171-1.34H58.682z"/>
	</g>
</g>
<g>
</g>
<g>
</g>
<g>
</g>
<g>
</g>
<g>
</g>
<g>
</g>
<g>
</g>
<g>
</g>
<g>
</g>
<g>
</g>
<g>
</g>
<g>
</g>
<g>
</g>
<g>
</g>
<g>
</g>
</svg>
